<?xml version="1.0" encoding="UTF-8"?>
<svg id="_레이어_1" data-name="레이어_1" xmlns="http://www.w3.org/2000/svg" version="1.1" viewBox="0 0 200 76.62">
  <!-- Generator: Adobe Illustrator 29.5.0, SVG Export Plug-In . SVG Version: 2.1.0 Build 137)  -->
  <defs>
    <style>
      .st0 {
        fill: #97bfd6;
      }

      .st1 {
        fill: #9ecf8d;
      }
    </style>
  </defs>
  <polygon class="st1" points="85.8 0 72.26 67.05 114.04 76.62 97.03 2.97 85.8 0"/>
  <polygon class="st0" points="118 29.06 118 76.62 157.14 67.21 132.86 25.27 118 29.06"/>
  <polygon class="st0" points="32.95 27.58 75.89 25.93 61.19 68.53 49.8 70.02 32.95 27.58"/>
  <polygon class="st0" points="9.01 26.92 19.25 25.93 45.17 70.02 0 76.62 9.01 26.92"/>
  <polygon class="st0" points="161.6 29.23 161.6 52.18 200 39.96 200 29.23 161.6 29.23"/>
  <polygon class="st0" points="200 67.54 200 44.59 161.6 56.81 161.6 67.54 200 67.54"/>
</svg>